<svg data-v-423bf9ae="" xmlns="http://www.w3.org/2000/svg" viewBox="0 0 235.88001858874568 60" class="font"><!----><!----><!----><g data-v-423bf9ae="" id="4ebcb21a-7fc2-419c-91ff-0cb86c6bcf2f" fill="white" transform="matrix(4.735595867300924,0,0,4.735595867300924,-0.6156239219264421,-10.276242439665985)"><path d="M2.84 12.46L2.84 12.46Q1.54 12.46 0.83 11.83L0.83 11.83L0.83 11.83Q0.13 11.20 0.13 10.01L0.13 10.01L0.13 9.27L1.90 9.27L1.90 9.87L1.90 9.87Q1.90 10.37 2.14 10.65L2.14 10.65L2.14 10.65Q2.38 10.92 2.84 10.92L2.84 10.92L2.84 10.92Q3.29 10.92 3.52 10.65L3.52 10.65L3.52 10.65Q3.75 10.37 3.75 9.87L3.75 9.87L3.75 2.69L5.54 2.69L5.54 10.01L5.54 10.01Q5.54 11.20 4.84 11.83L4.84 11.83L4.84 11.83Q4.14 12.46 2.84 12.46L2.84 12.46ZM10.12 12.46L10.12 12.46Q9.21 12.46 8.46 12.12L8.46 12.12L8.46 12.12Q7.70 11.77 7.25 11.10L7.25 11.10L7.25 11.10Q6.80 10.43 6.80 9.48L6.80 9.48L6.82 9.17L8.68 9.17L8.67 9.39L8.67 9.39Q8.67 10.09 9.07 10.51L9.07 10.51L9.07 10.51Q9.48 10.92 10.21 10.92L10.21 10.92L10.21 10.92Q10.95 10.92 11.30 10.59L11.30 10.59L11.30 10.59Q11.66 10.26 11.66 9.79L11.66 9.79L11.66 9.79Q11.66 9.31 11.41 9.01L11.41 9.01L11.41 9.01Q11.16 8.71 10.79 8.54L10.79 8.54L10.79 8.54Q10.42 8.37 9.74 8.15L9.74 8.15L9.74 8.15Q8.86 7.87 8.32 7.59L8.32 7.59L8.32 7.59Q7.77 7.31 7.39 6.73L7.39 6.73L7.39 6.73Q7 6.16 7 5.21L7 5.21L7 5.21Q7 4.34 7.43 3.73L7.43 3.73L7.43 3.73Q7.87 3.12 8.60 2.82L8.60 2.82L8.60 2.82Q9.32 2.52 10.21 2.52L10.21 2.52L10.21 2.52Q11.58 2.52 12.45 3.23L12.45 3.23L12.45 3.23Q13.33 3.93 13.33 5.35L13.33 5.35L13.33 5.52L11.49 5.52L11.49 5.39L11.49 5.39Q11.49 4.77 11.14 4.42L11.14 4.42L11.14 4.42Q10.79 4.06 10.19 4.06L10.19 4.06L10.19 4.06Q9.56 4.06 9.21 4.35L9.21 4.35L9.21 4.35Q8.85 4.63 8.85 5.08L8.85 5.08L8.85 5.08Q8.85 5.47 9.09 5.73L9.09 5.73L9.09 5.73Q9.32 5.98 9.68 6.13L9.68 6.13L9.68 6.13Q10.04 6.29 10.67 6.48L10.67 6.48L10.67 6.48Q11.58 6.78 12.14 7.05L12.14 7.05L12.14 7.05Q12.70 7.32 13.10 7.90L13.10 7.90L13.10 7.90Q13.51 8.47 13.51 9.41L13.51 9.41L13.51 9.41Q13.51 10.99 12.61 11.72L12.61 11.72L12.61 11.72Q11.70 12.46 10.12 12.46L10.12 12.46ZM14.88 12.29L14.88 2.69L19.01 2.69L19.01 2.69Q19.77 2.69 20.36 2.99L20.36 2.99L20.36 2.99Q20.96 3.29 21.29 3.83L21.29 3.83L21.29 3.83Q21.63 4.37 21.63 5.07L21.63 5.07L21.63 5.07Q21.63 5.87 21.22 6.45L21.22 6.45L21.22 6.45Q20.80 7.03 20.16 7.25L20.16 7.25L20.16 7.31L20.16 7.31Q20.90 7.53 21.38 8.18L21.38 8.18L21.38 8.18Q21.85 8.82 21.85 9.72L21.85 9.72L21.85 9.72Q21.85 10.50 21.47 11.08L21.47 11.08L21.47 11.08Q21.08 11.66 20.44 11.98L20.44 11.98L20.44 11.98Q19.80 12.29 19.01 12.29L19.01 12.29L14.88 12.29ZM16.67 6.58L18.52 6.58L18.52 6.58Q19.14 6.58 19.47 6.24L19.47 6.24L19.47 6.24Q19.80 5.91 19.80 5.39L19.80 5.39L19.80 5.39Q19.80 4.86 19.47 4.57L19.47 4.57L19.47 4.57Q19.15 4.28 18.61 4.28L18.61 4.28L16.67 4.28L16.67 6.58ZM16.67 10.70L18.72 10.70L18.72 10.70Q19.29 10.70 19.66 10.38L19.66 10.38L19.66 10.38Q20.02 10.07 20.02 9.49L20.02 9.49L20.02 9.49Q20.02 8.90 19.66 8.53L19.66 8.53L19.66 8.53Q19.31 8.16 18.63 8.16L18.63 8.16L16.67 8.16L16.67 10.70ZM23.10 12.29L23.10 4.93L24.50 4.93L24.70 6.01L24.78 6.01L24.78 6.01Q24.96 5.45 25.26 5.10L25.26 5.10L25.26 5.10Q25.55 4.76 26.05 4.76L26.05 4.76L26.05 4.76Q26.32 4.76 26.52 4.81L26.52 4.81L26.52 4.81Q26.71 4.86 26.75 4.87L26.75 4.87L26.75 6.50L26.15 6.50L26.15 6.50Q25.54 6.50 25.16 6.89L25.16 6.89L25.16 6.89Q24.78 7.28 24.78 8.19L24.78 8.19L24.78 12.29L23.10 12.29ZM27.55 3.70L27.55 2.17L29.23 2.17L29.23 3.70L27.55 3.70ZM27.55 12.29L27.55 4.93L29.23 4.93L29.23 12.29L27.55 12.29ZM32.93 12.46L32.93 12.46Q31.81 12.46 31.19 11.50L31.19 11.50L31.19 11.50Q30.56 10.54 30.56 8.60L30.56 8.60L30.56 8.60Q30.56 6.68 31.19 5.72L31.19 5.72L31.19 5.72Q31.81 4.76 32.84 4.76L32.84 4.76L32.84 4.76Q33.40 4.76 33.85 5.00L33.85 5.00L33.85 5.00Q34.29 5.25 34.48 5.68L34.48 5.68L34.55 5.68L34.55 2.17L36.23 2.17L36.23 12.29L34.83 12.29L34.66 11.38L34.59 11.38L34.59 11.38Q34.33 11.91 33.89 12.19L33.89 12.19L33.89 12.19Q33.46 12.46 32.93 12.46L32.93 12.46ZM33.43 10.93L33.43 10.93Q34.02 10.93 34.29 10.42L34.29 10.42L34.29 10.42Q34.55 9.91 34.55 8.88L34.55 8.88L34.55 8.37L34.55 8.37Q34.55 7.34 34.29 6.81L34.29 6.81L34.29 6.81Q34.02 6.29 33.43 6.29L33.43 6.29L33.43 6.29Q32.84 6.29 32.58 6.80L32.58 6.80L32.58 6.80Q32.31 7.31 32.31 8.34L32.31 8.34L32.31 8.88L32.31 8.88Q32.31 9.91 32.58 10.42L32.58 10.42L32.58 10.42Q32.84 10.93 33.43 10.93L33.43 10.93ZM38.85 14.84L38.85 14.84Q38.16 14.84 37.70 14.36L37.70 14.36L37.70 14.36Q37.23 13.89 37.23 13.15L37.23 13.15L37.23 13.15Q37.23 12.17 38.16 11.65L38.16 11.65L38.16 11.65Q37.58 11.28 37.58 10.54L37.58 10.54L37.58 10.54Q37.58 10.08 37.88 9.75L37.88 9.75L37.88 9.75Q38.18 9.42 38.65 9.25L38.65 9.25L38.65 9.25Q37.76 8.60 37.76 7.27L37.76 7.27L37.76 7.27Q37.76 6.10 38.47 5.43L38.47 5.43L38.47 5.43Q39.17 4.76 40.47 4.76L40.47 4.76L40.47 4.76Q41.17 4.76 41.71 4.97L41.71 4.97L41.71 4.97Q42.08 4.70 42.25 4.33L42.25 4.33L42.25 4.33Q42.42 3.96 42.42 3.70L42.42 3.70L43.81 3.70L43.81 3.70Q43.81 5.21 42.62 5.57L42.62 5.57L42.62 5.57Q43.20 6.23 43.20 7.27L43.20 7.27L43.20 7.27Q43.20 8.43 42.50 9.10L42.50 9.10L42.50 9.10Q41.79 9.77 40.47 9.77L40.47 9.77L39.77 9.77L39.77 9.77Q39.55 9.77 39.41 9.90L39.41 9.90L39.41 9.90Q39.27 10.02 39.27 10.22L39.27 10.22L39.27 10.22Q39.27 10.40 39.40 10.53L39.40 10.53L39.40 10.53Q39.52 10.65 39.70 10.65L39.70 10.65L42.25 10.65L42.25 10.65Q42.97 10.65 43.45 11.18L43.45 11.18L43.45 11.18Q43.93 11.70 43.93 12.57L43.93 12.57L43.93 12.57Q43.93 13.24 43.62 13.76L43.62 13.76L43.62 13.76Q43.30 14.28 42.76 14.56L42.76 14.56L42.76 14.56Q42.21 14.84 41.55 14.84L41.55 14.84L38.85 14.84ZM40.47 8.53L40.47 8.53Q40.99 8.53 41.26 8.20L41.26 8.20L41.26 8.20Q41.52 7.87 41.52 7.27L41.52 7.27L41.52 7.27Q41.52 6.66 41.26 6.33L41.26 6.33L41.26 6.33Q40.99 6.01 40.47 6.01L40.47 6.01L40.47 6.01Q39.97 6.01 39.70 6.33L39.70 6.33L39.70 6.33Q39.44 6.66 39.44 7.27L39.44 7.27L39.44 7.27Q39.44 7.87 39.70 8.20L39.70 8.20L39.70 8.20Q39.97 8.53 40.47 8.53L40.47 8.53ZM39.59 13.57L41.48 13.57L41.48 13.57Q41.80 13.57 42.02 13.38L42.02 13.38L42.02 13.38Q42.24 13.19 42.24 12.88L42.24 12.88L42.24 12.88Q42.24 12.57 42.04 12.39L42.04 12.39L42.04 12.39Q41.85 12.21 41.55 12.21L41.55 12.21L39.59 12.21L39.59 12.21Q39.31 12.21 39.12 12.40L39.12 12.40L39.12 12.40Q38.92 12.60 38.92 12.88L38.92 12.88L38.92 12.88Q38.92 13.19 39.11 13.38L39.11 13.38L39.11 13.38Q39.30 13.57 39.59 13.57L39.59 13.57ZM47.33 12.46L47.33 12.46Q45.89 12.46 45.17 11.52L45.17 11.52L45.17 11.52Q44.45 10.57 44.45 8.61L44.45 8.61L44.45 8.61Q44.45 4.76 47.28 4.76L47.28 4.76L47.28 4.76Q48.62 4.76 49.28 5.70L49.28 5.70L49.28 5.70Q49.94 6.64 49.94 8.61L49.94 8.61L49.94 9.03L46.20 9.03L46.20 9.03Q46.21 10.07 46.47 10.58L46.47 10.58L46.47 10.58Q46.73 11.09 47.33 11.09L47.33 11.09L47.33 11.09Q47.77 11.09 48.02 10.72L48.02 10.72L48.02 10.72Q48.27 10.35 48.27 9.69L48.27 9.69L49.94 9.69L49.94 9.69Q49.94 11.06 49.22 11.76L49.22 11.76L49.22 11.76Q48.51 12.46 47.33 12.46L47.33 12.46ZM46.21 7.81L48.17 7.81L48.17 7.81Q48.17 6.13 47.28 6.13L47.28 6.13L47.28 6.13Q46.76 6.13 46.51 6.56L46.51 6.56L46.51 6.56Q46.26 6.99 46.21 7.81L46.21 7.81Z"></path></g><!----><!----></svg>